<?xml version="1.0" standalone="no"?><!DOCTYPE svg PUBLIC "-//W3C//DTD SVG 1.1//EN" "http://www.w3.org/Graphics/SVG/1.1/DTD/svg11.dtd"><svg t="1607869428055" class="icon" viewBox="0 0 1024 1024" version="1.1" xmlns="http://www.w3.org/2000/svg" p-id="3169" xmlns:xlink="http://www.w3.org/1999/xlink" width="16" height="16"><defs><style type="text/css"></style></defs><path d="M610.892287 1023.872022H49.676745a49.703457 49.703457 0 0 1-35.465904-14.205558A47.799784 47.799784 0 0 1 0.037277 974.232554V49.655465A49.607474 49.607474 0 0 1 14.210841 14.205558 47.879771 47.879771 0 0 1 49.676745 0.031995h561.215542a48.215713 48.215713 0 1 1 0 96.431425H117.745046c-11.022106 0-20.01256 8.84648-20.220524 19.868585v790.936058c0.207964 11.006108 9.198419 19.836591 20.220524 19.836591h493.147241a48.215713 48.215713 0 0 1 0 96.415428v0.35194z m0 0" p-id="3170" data-spm-anchor-id="a313x.7781069.0.i0" class="selected" fill="#ffffff"></path><path d="M802.98727 733.169986a48.631641 48.631641 0 0 1-48.215713-48.247707c0.111981-12.637828 5.215104-24.747746 14.189561-33.658215l90.784397-90.768399H303.137182a48.199716 48.199716 0 0 1 0-96.063489h556.944275l-90.784396-88.992705a49.175548 49.175548 0 0 1 68.116292-70.915811l172.610333 172.642327c7.198763 7.262752 11.853963 16.557154 13.517676 26.619425v2.127634h-2.863507 2.863507a48.391683 48.391683 0 0 1-13.837621 39.001297L837.029419 717.220728a48.775617 48.775617 0 0 1-34.042149 15.949258z m0 0" fill="#ffffff" p-id="3171" data-spm-anchor-id="a313x.7781069.0.i1" class="selected"></path></svg>