<?xml version="1.0" standalone="no"?><!DOCTYPE svg PUBLIC "-//W3C//DTD SVG 1.1//EN" "http://www.w3.org/Graphics/SVG/1.1/DTD/svg11.dtd"><svg t="1607269997826" class="icon" viewBox="0 0 1102 1024" version="1.1" xmlns="http://www.w3.org/2000/svg" p-id="4647" xmlns:xlink="http://www.w3.org/1999/xlink" width="17.21875" height="16"><defs><style type="text/css"></style></defs><path d="M30.562462 963.111385h1041.644307c16.856615 0 30.562462 13.705846 30.562462 30.483692a30.562462 30.562462 0 0 1-30.562462 30.404923H30.562462A30.562462 30.562462 0 0 1 0 993.595077c0-16.777846 13.705846-30.483692 30.562462-30.483692zM152.418462 480.492308h122.407384c16.856615 0 30.562462 13.390769 30.562462 29.932307v300.740923c0 16.541538-13.705846 29.932308-30.562462 29.932308H152.418462a30.326154 30.326154 0 0 1-30.641231-29.932308V510.424615c0-16.541538 13.784615-30.011077 30.641231-30.011077zM491.283692 0h122.486154c16.777846 0 30.562462 13.469538 30.562462 29.932308v781.390769c0 16.541538-13.784615 30.089846-30.562462 30.089846H491.283692a30.326154 30.326154 0 0 1-30.562461-30.011077V29.932308c0-16.541538 13.705846-30.011077 30.562461-30.011077z m336.659693 241.348923h122.407384c16.856615 0 30.641231 13.390769 30.641231 30.168615v542.011077c0 16.541538-13.784615 30.011077-30.641231 30.011077h-122.407384a30.326154 30.326154 0 0 1-30.562462-29.932307V271.438769c0-16.699077 13.705846-30.168615 30.562462-30.168615z" fill="#1296db" p-id="4648"></path></svg>